<svg width="28" height="28" viewBox="0 0 28 28" fill="none" xmlns="http://www.w3.org/2000/svg">
<path d="M13.9989 5C12.3126 4.99991 10.683 5.60855 9.40962 6.714C8.13624 7.81946 7.30471 9.34743 7.0679 11.017C5.65114 11.1287 4.33258 11.7844 3.3886 12.8467C2.44462 13.9091 1.94851 15.2956 2.00423 16.7157C2.05996 18.1357 2.66321 19.4791 3.68753 20.4642C4.71186 21.4493 6.07774 21.9997 7.4989 22H20.4989C21.9201 21.9997 23.2859 21.4493 24.3103 20.4642C25.3346 19.4791 25.9378 18.1357 25.9936 16.7157C26.0493 15.2956 25.5532 13.9091 24.6092 12.8467C23.6652 11.7844 22.3467 11.1287 20.9299 11.017C20.6931 9.34743 19.8616 7.81946 18.5882 6.714C17.3148 5.60855 15.6852 4.99991 13.9989 5Z" fill="url(#paint0_linear_340_2)"/>
<path d="M13 16.5C13 17.9587 12.4205 19.3576 11.3891 20.3891C10.3576 21.4205 8.95869 22 7.5 22C6.04131 22 4.64236 21.4205 3.61091 20.3891C2.57946 19.3576 2 17.9587 2 16.5C2 15.0413 2.57946 13.6424 3.61091 12.6109C4.64236 11.5795 6.04131 11 7.5 11C8.95869 11 10.3576 11.5795 11.3891 12.6109C12.4205 13.6424 13 15.0413 13 16.5Z" fill="url(#paint1_linear_340_2)" fill-opacity="0.3"/>
<path d="M14.0013 19C15.3438 18.9999 16.6579 18.6138 17.7871 17.8877C18.9163 17.1616 19.8128 16.1261 20.3699 14.9046C20.9269 13.6832 21.121 12.3273 20.929 10.9986C20.7369 9.66995 20.1668 8.42452 19.2867 7.4108C18.4066 6.39708 17.2535 5.65783 15.9649 5.28117C14.6764 4.90451 13.3067 4.90632 12.0191 5.2864C10.7316 5.66648 9.58048 6.40879 8.70304 7.42484C7.8256 8.44089 7.25884 9.68782 7.07031 11.017C8.02986 10.9412 8.9925 11.1185 9.86205 11.5312C10.7316 11.944 11.4776 12.5777 12.0255 13.369C12.5735 14.1604 12.9041 15.0817 12.9844 16.0409C13.0648 17.0001 12.892 17.9635 12.4833 18.835C12.9713 18.943 13.4803 19 14.0013 19Z" fill="url(#paint2_linear_340_2)" fill-opacity="0.3"/>
<path d="M14.0013 19C15.3438 18.9999 16.6579 18.6138 17.7871 17.8877C18.9163 17.1616 19.8128 16.1261 20.3699 14.9046C20.9269 13.6832 21.121 12.3273 20.929 10.9986C20.7369 9.66995 20.1668 8.42452 19.2867 7.4108C18.4066 6.39708 17.2535 5.65783 15.9649 5.28117C14.6764 4.90451 13.3067 4.90632 12.0191 5.2864C10.7316 5.66648 9.58048 6.40879 8.70304 7.42484C7.8256 8.44089 7.25884 9.68782 7.07031 11.017C8.02986 10.9412 8.9925 11.1185 9.86205 11.5312C10.7316 11.944 11.4776 12.5777 12.0255 13.369C12.5735 14.1604 12.9041 15.0817 12.9844 16.0409C13.0648 17.0001 12.892 17.9635 12.4833 18.835C12.9713 18.943 13.4803 19 14.0013 19Z" fill="url(#paint3_radial_340_2)"/>
<path d="M13.9989 5C12.3126 4.99991 10.683 5.60855 9.40962 6.714C8.13624 7.81946 7.30471 9.34743 7.0679 11.017C5.65114 11.1287 4.33258 11.7844 3.3886 12.8467C2.44462 13.9091 1.94851 15.2956 2.00423 16.7157C2.05996 18.1357 2.66321 19.4791 3.68753 20.4642C4.71186 21.4493 6.07774 21.9997 7.4989 22H20.4989C21.9201 21.9997 23.2859 21.4493 24.3103 20.4642C25.3346 19.4791 25.9378 18.1357 25.9936 16.7157C26.0493 15.2956 25.5532 13.9091 24.6092 12.8467C23.6652 11.7844 22.3467 11.1287 20.9299 11.017C20.6931 9.34743 19.8616 7.81946 18.5882 6.714C17.3148 5.60855 15.6852 4.99991 13.9989 5Z" fill="url(#paint4_radial_340_2)" fill-opacity="0.5"/>
<defs>
<linearGradient id="paint0_linear_340_2" x1="2.8559" y1="8.188" x2="13.7849" y2="24.218" gradientUnits="userSpaceOnUse">
<stop stop-color="#FDFFB5"/>
<stop offset="1" stop-color="#2B99FF"/>
</linearGradient>
<linearGradient id="paint1_linear_340_2" x1="2" y1="12.884" x2="9.415" y2="19.448" gradientUnits="userSpaceOnUse">
<stop stop-color="white"/>
<stop offset="1" stop-color="#FCFCFC" stop-opacity="0"/>
</linearGradient>
<linearGradient id="paint2_linear_340_2" x1="9.48531" y1="5.787" x2="11.3393" y2="15.439" gradientUnits="userSpaceOnUse">
<stop stop-color="white"/>
<stop offset="1" stop-color="#FCFCFC" stop-opacity="0"/>
</linearGradient>
<radialGradient id="paint3_radial_340_2" cx="0" cy="0" r="1" gradientUnits="userSpaceOnUse" gradientTransform="translate(7.61531 16.462) rotate(-22.9494) scale(8.52745 7.62899)">
<stop offset="0.0144231" stop-color="#65FFC2"/>
<stop offset="0.412" stop-color="#2C87F5"/>
<stop offset="1" stop-color="#2C87F5" stop-opacity="0"/>
</radialGradient>
<radialGradient id="paint4_radial_340_2" cx="0" cy="0" r="1" gradientUnits="userSpaceOnUse" gradientTransform="translate(12.9986 3.93702) rotate(63.844) scale(20.984 150.403)">
<stop offset="0.5" stop-color="#DD3CE2" stop-opacity="0"/>
<stop offset="1" stop-color="#A52BEC"/>
</radialGradient>
</defs>
</svg>
